<svg width="64" height="64" viewBox="0 0 64 64" fill="none" xmlns="http://www.w3.org/2000/svg">
<path d="M41.3091 9.19164C34.4306 9.04803 27.3329 12.9937 25.3903 21.8752C17.4687 19.1768 10.3182 24.5057 11.0589 33.0244C8.97023 33.8678 7.18172 35.3169 5.92355 37.1853C4.66538 39.0537 3.99512 41.2559 3.99904 43.5084C3.99904 49.7746 9.04829 54.8163 15.3145 54.8163H29.0563L29.0412 41.9211L25.8212 43.0927C23.478 44.098 21.7546 41.1501 23.7576 39.3133L29.8575 33.3948C31.2484 32.004 32.9113 32.1627 34.1434 33.3948L40.2433 39.3209C42.2463 41.1501 40.5154 44.098 38.1797 43.0927L34.9597 41.9211V54.8163H48.6789C54.9451 54.8163 59.9868 49.7746 59.9868 43.5084C59.9868 38.8976 57.2505 34.9519 53.3124 33.1907C60.9467 18.2999 51.3622 9.38817 41.3091 9.19164Z" fill="#75B5FF"/>
<path d="M41.3093 9.18408C40.9313 9.18408 40.508 9.19164 40.1226 9.20676C31.3393 23.0544 44.9148 33.1831 53.3201 33.1831C60.9545 18.2924 51.3624 9.38817 41.3093 9.18408Z" fill="#488BFF"/>
</svg>
