<svg width="24" height="24" viewBox="0 0 24 24" fill="none" xmlns="http://www.w3.org/2000/svg">
<circle cx="12" cy="12" r="11.5" fill="#FAFBFC" stroke="#E2E8F0"/>
<path d="M14.5 8.40901H9.5C8 8.40901 7 9.13094 7 10.8154V14.1844C7 15.8689 8 16.5908 9.5 16.5908H14.5C16 16.5908 17 15.8689 17 14.1844V10.8154C17 9.13094 16 8.40901 14.5 8.40901ZM14.735 11.34L13.17 12.5432C12.84 12.7983 12.42 12.9235 12 12.9235C11.58 12.9235 11.155 12.7983 10.83 12.5432L9.265 11.34C9.105 11.2149 9.08 10.9839 9.205 10.8299C9.335 10.6759 9.57 10.647 9.73 10.7721L11.295 11.9753C11.675 12.2689 12.32 12.2689 12.7 11.9753L14.265 10.7721C14.425 10.647 14.665 10.671 14.79 10.8299C14.92 10.9839 14.895 11.2149 14.735 11.34Z" fill="url(#paint0_linear_466_499)"/>
<defs>
<linearGradient id="paint0_linear_466_499" x1="11.8958" y1="8.1168" x2="8.33911" y2="11.4979" gradientUnits="userSpaceOnUse">
<stop stop-color="#8C57EA"/>
<stop offset="1" stop-color="#5570E8"/>
</linearGradient>
</defs>
</svg>
