<svg width="35" height="40" viewBox="0 0 35 40" fill="none" xmlns="http://www.w3.org/2000/svg">
<path d="M24.0021 8.17427C23.0947 8.17331 22.2247 7.81242 21.5831 7.17081C20.9415 6.52919 20.5806 5.65925 20.5796 4.75187V0H5.2867C4.10214 0 2.9661 0.470565 2.12849 1.30818C1.29088 2.14579 0.820313 3.28183 0.820312 4.46639L0.820313 31.3909C0.822072 32.5743 1.29341 33.7086 2.13083 34.5448C2.96825 35.381 4.10329 35.8506 5.2867 35.8506H23.6435C24.5271 35.8508 25.3909 35.589 26.1257 35.0983C26.8604 34.6076 27.4332 33.91 27.7715 33.0938C27.9961 32.5518 28.1116 31.9709 28.1116 31.3842V8.16763L24.0021 8.17427Z" fill="#5570E8" fill-opacity="0.0823529"/>
<path d="M28.1114 8.17427H24.0018C23.0945 8.17331 22.2245 7.81242 21.5829 7.17081C20.9413 6.52919 20.5804 5.65925 20.5794 4.75187V0L28.1114 8.17427ZM31.3761 28.3817H10.6226C9.15039 28.3817 7.95703 29.5751 7.95703 31.0473V37.2349C7.95703 38.7071 9.15039 39.9004 10.6226 39.9004H31.3761C32.8483 39.9004 34.0417 38.7071 34.0417 37.2349V31.0473C34.0417 29.5751 32.8483 28.3817 31.3761 28.3817Z" fill="#5570E8"/>
<path d="M14.6656 36.9493C14.0195 36.9493 13.5413 36.7954 13.2308 36.4879C12.9234 36.1775 12.7695 35.6993 12.7695 35.0532V33.1063C12.7695 32.4545 12.9234 31.9748 13.2309 31.6673C13.5385 31.3569 14.0138 31.2046 14.6572 31.2102H15.6814C16.2119 31.2102 16.6168 31.3202 16.8962 31.5403C17.1755 31.7576 17.3377 32.1018 17.3828 32.573C17.3997 32.6915 17.3772 32.7818 17.3151 32.8439C17.253 32.906 17.1627 32.937 17.0442 32.937C16.8298 32.937 16.7056 32.8185 16.6718 32.5815C16.6436 32.3219 16.5533 32.147 16.4009 32.0567C16.2514 31.9664 16.0115 31.9212 15.6814 31.9212H14.6572C14.3581 31.9184 14.1226 31.9523 13.9504 32.0228C13.7811 32.0934 13.6598 32.216 13.5865 32.3909C13.5159 32.5631 13.4806 32.8016 13.4806 33.1063V35.0532C13.4806 35.3551 13.5159 35.5921 13.5865 35.7642C13.6203 35.847 13.6703 35.9221 13.7335 35.9853C13.7967 36.0485 13.8719 36.0985 13.9546 36.1324C14.1267 36.2029 14.3637 36.2383 14.6656 36.2383H15.6814C16.0115 36.2383 16.2514 36.1931 16.4009 36.1028C16.5533 36.0097 16.6436 35.8348 16.6718 35.578C16.7056 35.341 16.8298 35.2225 17.0442 35.2225C17.1627 35.2225 17.253 35.2535 17.3151 35.3156C17.3772 35.3777 17.3997 35.468 17.3828 35.5865C17.3377 36.0605 17.1753 36.4061 16.8962 36.6233C16.617 36.8406 16.2119 36.9493 15.6814 36.9493H14.6656ZM20.3013 36.9493C19.8188 36.9493 19.4422 36.8519 19.1714 36.6572C18.9033 36.4625 18.7353 36.1621 18.6676 35.7558C18.6563 35.6316 18.6817 35.5385 18.7438 35.4764C18.8059 35.4144 18.8962 35.3833 19.0147 35.3833C19.1332 35.3833 19.2193 35.4115 19.2729 35.468C19.3294 35.5244 19.3674 35.6119 19.3871 35.7304C19.4294 35.9251 19.5197 36.059 19.658 36.1324C19.7991 36.2029 20.0135 36.2383 20.3013 36.2383H21.5202C21.8842 36.2383 22.1312 36.1734 22.261 36.0436C22.3936 35.9109 22.4598 35.6655 22.4598 35.3071C22.4598 34.9431 22.3921 34.6948 22.2567 34.5622C22.1212 34.4268 21.8758 34.3591 21.5202 34.3591H20.4706C19.9373 34.3591 19.541 34.2293 19.2814 33.9697C19.0246 33.7073 18.8962 33.3095 18.8962 32.7762C18.8962 32.2457 19.0231 31.852 19.2771 31.5953C19.5338 31.3385 19.9289 31.2102 20.4621 31.2102H21.4694C21.9181 31.2102 22.2694 31.3018 22.5234 31.4852C22.7802 31.6686 22.9423 31.9495 23.01 32.3275C23.027 32.4489 23.0044 32.542 22.9423 32.6069C22.8802 32.669 22.7871 32.7 22.663 32.7C22.5501 32.7 22.4655 32.6703 22.409 32.611C22.3526 32.5518 22.3159 32.4658 22.299 32.3529C22.2538 32.1865 22.1679 32.0736 22.0409 32.0143C21.9139 31.9523 21.7234 31.9212 21.4694 31.9212H20.4621C20.1236 31.9212 19.8965 31.9818 19.7808 32.1031C19.6651 32.2217 19.6072 32.4461 19.6072 32.7762C19.6072 33.1091 19.6665 33.3377 19.785 33.4618C19.9035 33.586 20.132 33.648 20.4706 33.648H21.5202C22.0761 33.648 22.4895 33.7835 22.7604 34.0543C23.0341 34.3252 23.1709 34.7428 23.1709 35.3071C23.1709 35.8686 23.0354 36.2834 22.7646 36.5514C22.4937 36.8167 22.0789 36.9493 21.5202 36.9493H20.3013ZM26.5304 36.9493C26.3836 36.9493 26.268 36.8562 26.1833 36.67L24.0925 31.7181C24.0502 31.6193 24.0389 31.5319 24.0587 31.4557C24.0784 31.3767 24.1433 31.3118 24.2534 31.261C24.4847 31.1453 24.6484 31.2046 24.7443 31.4388L26.7209 36.1197H26.4754L28.4011 31.4388C28.4942 31.2074 28.6578 31.1481 28.892 31.261C28.9908 31.3118 29.0515 31.3767 29.0741 31.4557C29.0995 31.5319 29.0924 31.6193 29.0529 31.7181L26.9451 36.67C26.8577 36.8562 26.7307 36.9493 26.5642 36.9493H26.5304Z" fill="white"/>
<path d="M20.5534 25.029H8.37912C7.32518 25.029 6.46875 23.9801 6.46875 22.6888V13.8606C6.46875 12.5709 7.32518 11.522 8.37912 11.522H20.5534C21.6073 11.522 22.4638 12.5709 22.4638 13.8606V22.6888C22.4638 23.9801 21.6073 25.029 20.5534 25.029ZM8.37912 12.717C7.8646 12.717 7.44468 13.2299 7.44468 13.8606V22.6888C7.44468 23.3195 7.8646 23.8323 8.37912 23.8323H20.5534C21.0679 23.8323 21.4862 23.3195 21.4862 22.6888V13.8606C21.4862 13.2299 21.0679 12.717 20.5534 12.717H8.37912Z" fill="#5570E8"/>
<path d="M21.9761 19.7128H6.95703V20.9094H21.9761V19.7128ZM21.9761 15.6099H6.95703V16.8065H21.9761V15.6099Z" fill="#5570E8"/>
<path d="M18.1325 12.1191H16.9358V24.4295H18.1325V12.1191ZM12.0014 12.1191H10.8047V24.4295H12.0014V12.1191Z" fill="#5570E8"/>
</svg>
