<svg width="24" height="24" viewBox="0 0 24 24" fill="none" xmlns="http://www.w3.org/2000/svg">
<circle cx="12" cy="12" r="11.5" fill="#FAFBFC" stroke="#E2E8F0"/>
<g clip-path="url(#clip0_466_487)">
<path d="M12.0021 9.45789C11.6685 9.45784 11.3382 9.52351 11.0299 9.65114C10.7217 9.77878 10.4417 9.96588 10.2058 10.2018C9.96991 10.4377 9.7828 10.7177 9.65516 11.0259C9.52753 11.3341 9.46186 11.6645 9.46191 11.9981C9.46186 12.3317 9.52753 12.662 9.65516 12.9702C9.7828 13.2784 9.96991 13.5585 10.2058 13.7944C10.4417 14.0303 10.7217 14.2174 11.0299 14.345C11.3382 14.4726 11.6685 14.5383 12.0021 14.5382C12.3357 14.5383 12.666 14.4726 12.9742 14.345C13.2824 14.2174 13.5625 14.0303 13.7984 13.7944C14.0343 13.5585 14.2214 13.2784 14.349 12.9702C14.4767 12.662 14.5423 12.3317 14.5423 11.9981C14.5423 11.6645 14.4767 11.3341 14.349 11.0259C14.2214 10.7177 14.0343 10.4377 13.7984 10.2018C13.5625 9.96588 13.2824 9.77878 12.9742 9.65114C12.666 9.52351 12.3357 9.45784 12.0021 9.45789ZM12.0021 13.6468C11.6761 13.6467 11.3575 13.55 11.0865 13.3689C10.8155 13.1877 10.6043 12.9303 10.4795 12.6291C10.3548 12.3279 10.3222 11.9965 10.3858 11.6768C10.4495 11.3571 10.6064 11.0634 10.8369 10.8329C11.0674 10.6024 11.3611 10.4454 11.6808 10.3818C12.0005 10.3182 12.3319 10.3508 12.6331 10.4755C12.9343 10.6002 13.1917 10.8114 13.3729 11.0824C13.554 11.3535 13.6508 11.6721 13.6509 11.9981C13.651 12.2146 13.6084 12.4291 13.5256 12.6292C13.4427 12.8292 13.3213 13.011 13.1682 13.1642C13.0151 13.3173 12.8333 13.4387 12.6332 13.5215C12.4331 13.6044 12.2186 13.6469 12.0021 13.6468Z" fill="url(#paint0_linear_466_487)"/>
<path d="M14.0409 7.0811C13.1301 7.03861 10.8742 7.04068 9.96256 7.0811C9.16149 7.11864 8.45487 7.3121 7.88521 7.88176C6.93316 8.83381 7.05485 10.1167 7.05485 11.9981C7.05485 13.9237 6.9476 15.1768 7.88521 16.1144C8.84097 17.0698 10.1424 16.9448 12.0015 16.9448C13.9089 16.9448 14.5673 16.946 15.2417 16.6849C16.1587 16.3289 16.8509 15.5093 16.9185 14.0371C16.9614 13.1259 16.959 10.8703 16.9185 9.9587C16.8369 8.22084 15.9042 7.1669 14.0409 7.0811ZM15.4826 15.4846C14.8585 16.1087 13.9927 16.053 11.9896 16.053C9.92709 16.053 9.10002 16.0835 8.49654 15.4784C7.80147 14.7866 7.92729 13.6757 7.92729 11.9915C7.92729 9.71244 7.6934 8.0711 9.98071 7.95395C10.5062 7.93539 10.6609 7.9292 11.9838 7.9292L12.0024 7.94158C14.2006 7.94158 15.9252 7.7114 16.0288 9.9983C16.0523 10.5201 16.0577 10.6769 16.0577 11.9977C16.0572 14.0363 16.096 14.8683 15.4826 15.4846Z" fill="url(#paint1_linear_466_487)"/>
<path d="M14.6424 9.95124C14.9702 9.95124 15.236 9.68549 15.236 9.35766C15.236 9.02983 14.9702 8.76407 14.6424 8.76407C14.3146 8.76407 14.0488 9.02983 14.0488 9.35766C14.0488 9.68549 14.3146 9.95124 14.6424 9.95124Z" fill="url(#paint2_linear_466_487)"/>
</g>
<defs>
<linearGradient id="paint0_linear_466_487" x1="11.9492" y1="9.27645" x2="9.80589" y2="10.9435" gradientUnits="userSpaceOnUse">
<stop stop-color="#8C57EA"/>
<stop offset="1" stop-color="#5570E8"/>
</linearGradient>
<linearGradient id="paint1_linear_466_487" x1="11.8967" y1="6.69643" x2="7.72005" y2="9.94491" gradientUnits="userSpaceOnUse">
<stop stop-color="#8C57EA"/>
<stop offset="1" stop-color="#5570E8"/>
</linearGradient>
<linearGradient id="paint2_linear_466_487" x1="14.63" y1="8.72167" x2="14.1292" y2="9.11122" gradientUnits="userSpaceOnUse">
<stop stop-color="#8C57EA"/>
<stop offset="1" stop-color="#5570E8"/>
</linearGradient>
<clipPath id="clip0_466_487">
<rect width="9.9" height="9.9" fill="white" transform="translate(7.0498 7.05)"/>
</clipPath>
</defs>
</svg>
