<svg width="208" height="26" viewBox="0 0 208 26" fill="none" xmlns="http://www.w3.org/2000/svg">
<path d="M36.7973 14.8044C36.8131 14.7487 36.837 14.7449 36.8692 14.7931C38.5226 17.2971 40.773 18.9674 43.6205 19.8041C43.6641 19.8173 43.6802 19.8454 43.6688 19.8886C43.4001 20.8912 43.0711 21.8969 42.6819 22.9057C42.6774 22.9171 42.6689 22.9264 42.6581 22.9319C42.6473 22.9375 42.6349 22.9388 42.6232 22.9358L41.4423 22.6232C41.4289 22.6194 41.4172 22.6112 41.4094 22.5998C41.4016 22.5884 41.3982 22.5748 41.3997 22.5612L41.6751 20.2604C41.6795 20.2203 41.6615 20.1981 41.6212 20.1937L39.9993 20.0304C39.9867 20.029 39.974 20.0327 39.9641 20.0407C39.9541 20.0486 39.9478 20.0601 39.9463 20.0726L39.4978 23.8557C39.4968 23.8648 39.4991 23.874 39.5043 23.8816C39.5096 23.8891 39.5173 23.8946 39.5262 23.897L43.682 24.9991C43.6897 25.0009 43.6977 25 43.7047 24.9965C43.7116 24.9931 43.717 24.9874 43.7199 24.9803C44.3671 23.3864 44.9273 21.9154 45.3758 20.1928C45.3865 20.1515 45.4133 20.1339 45.4562 20.1402C45.6909 20.1715 45.9224 20.1915 46.1508 20.2003C47.4875 20.2491 48.7551 20.0958 49.9536 19.7403C49.9668 19.7364 49.9783 19.7284 49.9864 19.7174C49.9946 19.7064 49.9991 19.693 49.9991 19.6793L50 17.9924C50 17.9461 49.9776 17.9304 49.9328 17.9454C48.598 18.3954 47.2184 18.5609 45.794 18.442C45.7898 18.4417 45.7856 18.4405 45.7819 18.4385C45.7781 18.4364 45.7748 18.4337 45.7722 18.4303C45.7696 18.4269 45.7678 18.423 45.7668 18.4189C45.7659 18.4148 45.7658 18.4105 45.7666 18.4063C46.304 15.4174 46.258 12.4823 45.6284 9.60096C45.489 8.96262 45.3171 8.3612 45.1127 7.7967C44.194 5.25553 42.7264 2.7613 40.1782 1.57473C39.0559 1.05279 37.6688 0.953289 36.3743 1.01712C35.4376 1.06281 34.5541 1.1473 33.724 1.27058C31.8864 1.5447 30.0813 1.96369 28.3087 2.52756C24.8162 3.63996 21.6369 5.44985 19.2656 8.2304C16.6133 11.3414 15.8583 15.4944 16.021 19.5375C16.0923 21.3011 16.2866 23.0869 16.6039 24.8949C16.6058 24.9074 16.613 24.9137 16.6256 24.9137H22.0664C22.0821 24.9137 22.0972 24.9078 22.1087 24.8972C22.1201 24.8865 22.127 24.872 22.128 24.8564C22.1686 24.0867 22.1355 23.2333 22.3049 22.5115C22.7203 20.7391 24.2816 19.6671 26.0661 19.5103C28.4175 19.3038 30.2068 20.7316 30.5569 23.0109C30.6453 23.5866 30.7153 24.2002 30.767 24.8517C30.7682 24.8683 30.7757 24.8839 30.788 24.8952C30.8003 24.9065 30.8165 24.9128 30.8332 24.9128L37.4379 24.9137C37.4454 24.9137 37.4528 24.9119 37.4595 24.9086C37.4662 24.9053 37.472 24.9004 37.4766 24.8945C37.4811 24.8885 37.4843 24.8815 37.4858 24.8741C37.4873 24.8667 37.4871 24.8591 37.4852 24.8517C37.272 24.0519 37.0667 23.2675 36.8692 22.4983C36.4958 21.042 36.3185 19.5704 36.3374 18.0834C36.3519 16.9613 36.5052 15.8683 36.7973 14.8044ZM37.2231 11.8934C36.2551 12.0304 35.1868 11.9544 34.3239 11.4756C32.878 10.6739 32.5308 8.75328 33.6 7.48316C33.9794 7.03163 34.4913 6.76315 35.0723 6.62797C35.1095 6.61921 35.1244 6.59637 35.1168 6.55944L34.8008 5.01052C34.7986 5.00023 34.7945 4.99047 34.7885 4.98181C34.7825 4.97314 34.7748 4.96575 34.7659 4.96007C34.757 4.95438 34.7471 4.95052 34.7366 4.94871C34.7262 4.94689 34.7155 4.94717 34.7052 4.94951C33.5937 5.19358 32.7191 5.74806 32.0813 6.61295C30.8559 8.27452 30.979 10.6092 32.3898 12.1224C33.1676 12.957 34.1517 13.3954 35.2852 13.5925C35.3224 13.5987 35.3354 13.62 35.324 13.6563C34.3352 16.7457 34.4024 20.0003 35.2398 23.1141C35.2537 23.1654 35.2341 23.1911 35.1811 23.1911L32.3794 23.1902C32.3665 23.1902 32.354 23.1854 32.3444 23.1768C32.3348 23.1681 32.3287 23.1562 32.3273 23.1432C32.2605 22.3703 32.0472 21.6156 31.6877 20.879C30.1964 17.8215 26.3519 17.002 23.4858 18.4852C21.6678 19.4271 20.6588 20.9738 20.4588 23.1254C20.455 23.1679 20.4317 23.1892 20.3888 23.1892L18.1396 23.192C18.1291 23.1921 18.1189 23.1882 18.111 23.1812C18.103 23.1741 18.0977 23.1643 18.0961 23.1536C17.8646 21.6203 17.745 20.1095 17.7375 18.6213C17.7252 16.1703 18.1008 13.6544 19.1871 11.4559C19.6413 10.5366 20.2765 9.64602 21.0928 8.78426C22.8055 6.97531 24.8796 5.6836 27.1988 4.76082C29.746 3.74792 32.4579 3.15182 35.1499 2.80261C36.3885 2.64208 37.6092 2.60359 38.7749 2.90399C41.9675 3.72727 43.6338 7.99665 44.1173 10.9002C44.5179 13.3096 44.4996 15.7012 44.0624 18.075C44.0561 18.1081 44.0369 18.12 44.0047 18.1106C41.9697 17.5092 40.3018 16.4046 39.0011 14.7969C38.3141 13.947 37.7489 12.9948 37.3054 11.9403C37.2903 11.9034 37.2628 11.8877 37.2231 11.8934Z" fill="url(#paint0_linear_1_1194)" stroke="url(#paint1_linear_1_1194)" stroke-width="0.5"/>
<path d="M67.8967 17.21V20.0416C67.8967 22.3112 66.049 23.5 62.9272 23.5C59.8478 23.5 58.0001 22.3112 58.0001 20.0416V16.6264H61.5468V19.2202C61.5468 19.9984 62.0777 20.5171 62.9272 20.5171C63.7979 20.5171 64.3501 19.9767 64.3501 19.1986V17.7288C64.3501 16.6696 63.3519 15.9131 62.0989 15.3727C60.315 14.6378 57.9789 13.5787 58.0001 10.8984V8.564C58.0001 6.25119 59.8903 4.86783 62.9272 4.86783C65.9853 4.86783 67.8967 6.25119 67.8967 8.564V11.1794H64.3501V9.16922C64.3501 8.39108 63.7979 7.85071 62.9272 7.85071C62.0777 7.85071 61.5468 8.36947 61.5468 9.14761V10.2067C61.5255 11.8063 63.1395 12.1521 64.7111 12.8654C65.2633 13.1032 65.773 13.3842 66.2402 13.6868C67.1958 14.2704 67.8967 15.5024 67.8967 17.21Z" fill="#080F1B"/>
<path d="M81.8915 5.23528V23.1325H78.3449V15.3944H75.5416V23.1325H71.995V5.23528H75.5416V12.4115H78.3449V5.23528H81.8915Z" fill="#080F1B"/>
<path d="M86.4823 20.0416V8.564C86.4823 6.25119 88.3724 4.86783 91.4093 4.86783C94.4674 4.86783 96.3788 6.25119 96.3788 8.564V20.0416C96.3788 22.3112 94.5524 23.5 91.4305 23.5C88.3511 23.5 86.4823 22.3112 86.4823 20.0416ZM92.8322 19.2202V9.16922C92.8322 8.39108 92.28 7.85071 91.4093 7.85071C90.5598 7.85071 90.0289 8.36947 90.0289 9.14761V19.1986C90.0289 19.9767 90.581 20.5171 91.4305 20.5171C92.3013 20.5171 92.8322 19.9984 92.8322 19.2202Z" fill="#080F1B"/>
<path d="M107.909 23.1325H101.007V5.23528H107.909C109.034 5.23528 109.82 5.64597 110.224 6.09989C110.415 6.31604 110.563 6.61865 110.67 7.02933C110.903 7.82909 110.903 8.26139 110.903 9.21245V19.1554C110.903 20.1064 110.903 20.5387 110.67 21.3385C110.393 22.4625 109.65 23.0461 107.909 23.1325ZM107.357 18.5934V9.77445C107.357 8.73692 107.038 8.21816 106.188 8.21816H104.553V20.1497H106.188C107.038 20.1497 107.357 19.6309 107.357 18.5934Z" fill="#080F1B"/>
<path d="M123.489 20.1497V23.1325H115.631V5.23528H123.489V8.21816H119.177V12.4115H123.361V15.3944H119.177V20.1497H123.489Z" fill="#080F1B"/>
<path d="M138 5.23528V23.1325H132.754L131.055 9.10438V23.1325H127.87V5.23528H133.2L134.814 18.5285V5.23528H138Z" fill="#080F1B"/>
<path d="M87.082 2.5H95.7699V3.97375H87.082V2.5Z" fill="#080F1B"/>
<defs>
<linearGradient id="paint0_linear_1_1194" x1="50" y1="13" x2="16" y2="13" gradientUnits="userSpaceOnUse">
<stop stop-color="#4776E6"/>
<stop offset="1" stop-color="#8E54E9"/>
</linearGradient>
<linearGradient id="paint1_linear_1_1194" x1="16" y1="14.875" x2="46.9906" y2="17.9226" gradientUnits="userSpaceOnUse">
<stop stop-color="#8C56E9"/>
<stop offset="1" stop-color="#5570E7"/>
</linearGradient>
</defs>
</svg>
